<svg width="36" height="37" viewBox="0 0 36 37" fill="none" xmlns="http://www.w3.org/2000/svg">
    <path fill-rule="evenodd" clip-rule="evenodd" d="M15.403 9.592C16.2825 9.75783 17.107 10.1396 17.8025 10.703C18.4979 11.2663 19.0425 11.9937 19.3872 12.8196C19.732 13.6456 19.8661 14.5442 19.7776 15.4348C19.689 16.3254 19.3806 17.1801 18.88 17.922L32.714 28.66C33.1646 28.4266 33.6808 28.3523 34.1789 28.4492C34.677 28.5462 35.1276 28.8086 35.4578 29.194C35.7879 29.5794 35.9781 30.065 35.9974 30.572C36.0167 31.0791 35.8641 31.5778 35.5643 31.9872C35.2645 32.3966 34.8351 32.6926 34.3458 32.8272C33.8566 32.9618 33.3362 32.9271 32.8692 32.7286C32.4022 32.5302 32.0159 32.1798 31.7732 31.7342C31.5304 31.2886 31.4454 30.774 31.532 30.274L17.462 19.352C16.7995 19.806 16.044 20.1066 15.2506 20.2317C14.4572 20.3568 13.6458 20.3033 12.8757 20.0752C12.1056 19.847 11.3961 19.45 10.7988 18.9129C10.2016 18.3759 9.73164 17.7124 9.42327 16.9707C9.11491 16.2291 8.97588 15.428 9.0163 14.6258C9.05673 13.8236 9.2756 13.0405 9.65696 12.3336C10.0383 11.6268 10.5726 11.0138 11.2208 10.5396C11.869 10.0653 12.6149 9.74155 13.404 9.592L13.402 0.5H15.402V9.592H15.403ZM16.202 14.9C16.202 15.1364 16.1554 15.3704 16.065 15.5888C15.9745 15.8072 15.8419 16.0056 15.6748 16.1728C15.5077 16.3399 15.3092 16.4725 15.0908 16.563C14.8725 16.6534 14.6384 16.7 14.402 16.7C14.1656 16.7 13.9316 16.6534 13.7132 16.563C13.4948 16.4725 13.2964 16.3399 13.1292 16.1728C12.9621 16.0056 12.8295 15.8072 12.739 15.5888C12.6486 15.3704 12.602 15.1364 12.602 14.9C12.602 14.4226 12.7917 13.9648 13.1292 13.6272C13.4668 13.2896 13.9246 13.1 14.402 13.1C14.8794 13.1 15.3372 13.2896 15.6748 13.6272C16.0124 13.9648 16.202 14.4226 16.202 14.9Z" fill="#0560FA"/>
    <path d="M21.626 14.884C21.6263 13.5007 21.2282 12.1467 20.4793 10.9837C19.7304 9.82071 18.6624 8.89804 17.403 8.32599V0.605988C21.692 0.982988 23.92 2.33399 25.915 4.18299C26.015 4.27699 26.115 4.36799 26.211 4.45599V4.45699C27.061 5.23699 27.737 5.85799 28.086 6.78799L32.32 18.06C32.4335 18.3625 32.4719 18.6881 32.432 19.0087C32.3921 19.3294 32.2751 19.6356 32.091 19.9011C31.9069 20.1666 31.6611 20.3836 31.3748 20.5333C31.0885 20.6831 30.7701 20.7612 30.447 20.761H28.816V23.1L21.241 17.217C21.4974 16.4663 21.6279 15.6783 21.627 14.885L21.626 14.884ZM11.403 8.34599V0.740988C2.413 2.09399 0 8.80099 0 12.475C0 18.242 3.683 22.715 5.41 24.508V36.5H22.522V29.988H26.815C27.117 29.988 27.405 29.92 27.661 29.8L17.076 21.58C15.3265 22.3019 13.3631 22.306 11.6106 21.5914C9.85813 20.8767 8.45752 19.5007 7.71184 17.7612C6.96617 16.0217 6.93539 14.0585 7.62619 12.2965C8.31698 10.5344 9.67378 9.11524 11.403 8.34599Z" fill="#0560FA"/>
</svg>
